<svg xmlns="http://www.w3.org/2000/svg" xmlns:xlink="http://www.w3.org/1999/xlink" fill="none" version="1.1" width="24" height="24" viewBox="0 0 24 24"><defs><clipPath id="master_svg0_81_0316"><rect x="0" y="0" width="24" height="24" rx="0"/></clipPath></defs><g clip-path="url(#master_svg0_81_0316)"><g><path d="M3,11L21,11Q21.0985,11,21.1951,11.019214999999999Q21.2917,11.03843,21.3827,11.076121Q21.4737,11.113812,21.5556,11.16853Q21.6375,11.223249,21.7071,11.292893Q21.7767,11.362537,21.8315,11.44443Q21.8862,11.526322,21.9239,11.617317Q21.9616,11.708311,21.9808,11.80491Q22,11.9015086,22,12Q22,12.0984914,21.9808,12.19509Q21.9616,12.291689,21.9239,12.382683Q21.8862,12.473678,21.8315,12.55557Q21.7767,12.637463,21.7071,12.707107Q21.6375,12.776751,21.5556,12.83147Q21.4737,12.886188,21.3827,12.923879Q21.2917,12.96157,21.1951,12.980785000000001Q21.0985,13,21,13L3,13Q2.9015086,13,2.80491,12.980785000000001Q2.708311,12.96157,2.617317,12.923879Q2.526322,12.886188,2.44443,12.83147Q2.362537,12.776751,2.292893,12.707107Q2.223249,12.637463,2.16853,12.55557Q2.1138120000000002,12.473678,2.076121,12.382683Q2.03843,12.291689,2.019215,12.19509Q2,12.0984914,2,12Q2,11.9015086,2.019215,11.80491Q2.03843,11.708311,2.076121,11.617317Q2.1138120000000002,11.526322,2.16853,11.44443Q2.223249,11.362537,2.292893,11.292893Q2.362537,11.223249,2.44443,11.16853Q2.526322,11.113812,2.617317,11.076121Q2.708311,11.03843,2.80491,11.019214999999999Q2.9015086,11,3,11Z" fill-rule="evenodd" fill="#0256FF" fill-opacity="1"/></g><g><path d="M15.707226,5.293012L21.70711,11.29289Q21.84776,11.43355,21.92388,11.61732Q22,11.80109,22,12Q22,12.19891,21.92388,12.38268Q21.84776,12.56645,21.70711,12.70711L15.708009,18.706200000000003L15.707107,18.7071Q15.566455,18.8478,15.382684,18.9239Q15.198913,19,15,19Q14.9015086,19,14.80491,18.980800000000002Q14.708311,18.9616,14.617317,18.9239Q14.526322,18.886200000000002,14.44443,18.8315Q14.362537,18.776699999999998,14.292893,18.7071Q14.223249,18.6375,14.16853,18.5556Q14.113812,18.4737,14.076121,18.3827Q14.03843,18.2917,14.019214999999999,18.1951Q14,18.0985,14,18Q14,17.801099999999998,14.07612,17.6173Q14.152241,17.433500000000002,14.292893,17.2929L14.293268,17.2925L19.58579,12L14.293012000000001,6.707226L14.292893,6.707107Q14.152241,6.566455,14.07612,6.382683Q14,6.198912,14,6Q14,5.9015086,14.019214999999999,5.80491Q14.03843,5.708311,14.076121,5.617317Q14.113812,5.526322,14.16853,5.44443Q14.223249,5.362537,14.292893,5.292893Q14.362537,5.223249,14.44443,5.16853Q14.526322,5.113812,14.617317,5.076121Q14.708311,5.03843,14.80491,5.019215Q14.9015086,5,15,5Q15.198912,5,15.382683,5.0761199999999995Q15.566455,5.152241,15.707107,5.292893L15.707226,5.293012Z" fill-rule="evenodd" fill="#0256FF" fill-opacity="1"/></g></g></svg>