<svg xmlns="http://www.w3.org/2000/svg" xmlns:xlink="http://www.w3.org/1999/xlink" fill="none" version="1.1" width="23.783784866333008" height="23.783784866333008" viewBox="0 0 23.783784866333008 23.783784866333008"><defs><clipPath id="master_svg0_81_0143"><rect x="0" y="0" width="23.783784866333008" height="23.783784866333008" rx="7.135135173797607"/></clipPath></defs><g clip-path="url(#master_svg0_81_0143)"><rect x="0" y="0" width="23.783784866333008" height="23.783784866333008" rx="7.135135173797607" fill="#FFFFFF" fill-opacity="1"/><g><rect x="2.9189453125" y="4.10809326171875" width="18.70270347595215" height="13.621622085571289" rx="0" fill="#FFFFFF" fill-opacity="1"/></g><g><path d="M16.6486,0C20.5893,0,23.7838,3.19446,23.7838,7.13514L23.7838,16.6487C23.7838,20.5893,20.5893,23.7838,16.6486,23.7838L7.13514,23.7838C3.19446,23.7838,0,20.5893,0,16.6486L0,7.13514C0,3.19446,3.19446,0,7.13514,0L16.6486,0ZM12.301,7.44462L5.30973,7.44462C5.25538,7.44511,5.21172,7.48957,5.21222,7.54392L5.21222,16.1982C5.21189,16.2524,5.25555,16.2966,5.30973,16.2969L7.17735,16.2969C7.23116,16.2969,7.27487,16.2524,7.27487,16.1974L7.27487,9.405C7.27487,9.35,7.31857,9.30511,7.37238,9.30511L11.3883,9.30511C12.1425,9.30511,12.7541,9.93241,12.7541,10.7057L12.7541,16.1974C12.7541,16.2524,12.7978,16.2969,12.8513,16.2969L14.6915,16.2969C14.7457,16.2963,14.7891,16.2518,14.7885,16.1977L14.7885,9.99632C14.7885,8.58714,13.6751,7.44462,12.3013,7.44462L12.301,7.44462ZM10.9197,10.893L9.0527,10.893C8.99819,10.8936,8.95453,10.9384,8.95519,10.9929L8.95519,16.1977C8.95519,16.2529,8.9986,16.2972,9.0527,16.2972L10.9197,16.2972C10.9456,16.2972,10.9703,16.2868,10.9884,16.2684C11.0068,16.2495,11.0171,16.2241,11.0169,16.1977L11.0169,10.9926C11.017,10.9662,11.0068,10.9408,10.9884,10.9218C10.9704,10.9032,10.9456,10.8927,10.9197,10.8927L10.9197,10.893ZM18.3855,7.44522L16.519,7.44522C16.4649,7.44522,16.4209,7.48981,16.4209,7.54511L16.4209,16.1977C16.4209,16.2529,16.4649,16.2972,16.519,16.2972L18.3855,16.2972C18.4396,16.2972,18.4833,16.2527,18.4833,16.1977L18.4833,7.54481C18.4834,7.5184,18.4731,7.49301,18.4547,7.47406C18.4365,7.45537,18.4115,7.44485,18.3855,7.44492L18.3855,7.44522Z" fill="#FF6A00" fill-opacity="1"/></g></g></svg>