<svg xmlns="http://www.w3.org/2000/svg" xmlns:xlink="http://www.w3.org/1999/xlink" fill="none" version="1.1" width="100" height="100" viewBox="0 0 100 100"><defs><clipPath id="master_svg0_457_039978"><rect x="0" y="0" width="100" height="100" rx="22.4609375"/></clipPath><linearGradient x1="0" y1="0.5" x2="1" y2="0.5" id="master_svg1_457_85990"><stop offset="0%" stop-color="#7A0DFF" stop-opacity="1"/><stop offset="100%" stop-color="#EB2F96" stop-opacity="1"/></linearGradient><clipPath id="master_svg2_457_039978/457_022180"><rect x="0" y="0" width="100" height="100" rx="0"/></clipPath></defs><g clip-path="url(#master_svg0_457_039978)"><g clip-path="url(#master_svg2_457_039978/457_022180)"><rect x="0" y="0" width="100" height="100" rx="0" fill="url(#master_svg1_457_85990)" fill-opacity="1"/><g><path d="M49.999802589416504,73.63228749999999L50.000702589416505,73.6327875L50.000702589416505,73.6316875Q52.7990025894165,71.9121875,57.4017025894165,71.0974875C61.5931025894165,70.3555875,64.7939025894165,70.3640875,67.5982025894165,70.3715875C67.8743025894165,70.3723875,68.14650258941651,70.3730875,68.4155025894165,70.3730875C72.2974025894165,70.3730875,80.4224025894165,64.8496875,82.58900258941651,59.0546875C81.3251025894165,59.8695875,80.33210258941651,59.9601875,78.52650258941651,59.2357875C85.65840258941651,56.6098875,87.1932025894165,47.5551875,87.1932025894165,43.2089875C87.1463025894165,43.2558875,87.0849025894165,43.3204875,87.0110025894165,43.3981875C86.37200258941651,44.0694875,84.7957025894165,45.7254875,83.58210258941651,45.5631875C87.7348025894165,42.756187499999996,88.5474025894165,30.9850775,86.2002025894165,26.3671875C85.3877025894165,30.2607575,82.8135025894165,34.7158575,68.4155025894165,40.4925875C64.64300258941651,42.006187499999996,52.146002589416504,43.6978875,49.999802589416504,54.909687500000004C47.853602589416504,43.6978875,35.356602589416504,42.006187499999996,31.584102589416503,40.4925875C17.186102589416503,34.7158575,14.611872589416503,30.2607575,13.799382589416505,26.3671875C11.452172589416504,30.9850775,12.264771589416505,42.756187499999996,16.417532589416503,45.5631875C15.203872589416504,45.7254875,13.627622589416504,44.0694875,12.988652589416503,43.3981875C12.914685589416504,43.3204875,12.853272589416504,43.2558875,12.806443589416505,43.2089875C12.806443589416505,47.5551875,14.341152589416504,56.6098875,21.473062589416504,59.2357875C19.667512589416503,59.9601875,18.674462589416503,59.8695875,17.410582589416503,59.0546875C19.577232589416504,64.8496875,27.702202589416505,70.3730875,31.584102589416503,70.3730875C31.853102589416505,70.3730875,32.125302589416506,70.3723875,32.401402589416506,70.3715875C35.205702589416504,70.3640875,38.406502589416505,70.3555875,42.597902589416506,71.0974875Q47.200602589416505,71.9121875,49.9989025894165,73.6316875L49.9989025894165,73.6327875L49.999802589416504,73.63228749999999ZM42.234202589416505,59.5075875C28.112402589416504,59.5075875,27.707602589416503,54.384887500000005,27.376402589416504,50.1921875C27.339102589416505,49.7211875,27.302802589416505,49.261987500000004,27.248102589416504,48.822987499999996Q37.268902589416506,48.822987499999996,42.234202589416505,59.5075875ZM57.7654025894165,59.5075875C71.8872025894165,59.5075875,72.29200258941651,54.384887500000005,72.62320258941651,50.1921875C72.6605025894165,49.7211875,72.6968025894165,49.261987500000004,72.7515025894165,48.822987499999996Q62.7307025894165,48.822987499999996,57.7654025894165,59.5075875Z" fill-rule="evenodd" fill="#FFFFFF" fill-opacity="1"/></g></g></g></svg>